<svg xmlns="http://www.w3.org/2000/svg" viewBox="0 0 266.635 209.141">
  <g stroke="#000" transform="translate(-14.968 -.987)">
    <path fill="#ff7db6" stroke-width="3.969" d="M27.986 208.144s-4.373-14.43-4.81-24.05c-.438-9.62-3.499-13.993-4.81-22.739-1.312-8.745-4.373-34.982 6.559-38.48 10.932-3.498 15.304 6.559 18.803 31.484 3.498 24.924 10.494 20.989 10.494 20.989s8.746 4.81 16.617-51.161c7.87-55.972 48.975-52.91 48.975-52.91s24.925-1.313 31.484 31.046c6.559 32.358 0 68.215 9.183 73.025 9.182 4.81 20.989-27.548 20.989-27.548s5.684-20.99 19.677-19.24c13.993 1.748 3.061 34.981-3.935 49.849-6.997 14.867-9.62 29.735-9.62 29.735z"/>
    <path stroke-width="2.419" d="M102.02 124.974s3.426-.389 15.64-.389c12.215 0 14.187.321 14.187.71 0 .388-8.08.178-14.187.123-6.107-.056-17.497-.38-15.64-.444z"/>
    <circle cx="99.808" cy="102.214" r="1.181" stroke-width="3.573"/>
    <circle cx="132.495" cy="104.598" r="1.312" stroke-width="3.969"/>
    <path fill="#3aff7f" stroke-width="3.969" d="M178.777 87.6c11.62-2.979 23.837-18.175 23.837-18.175s-8.641-10.727-7.747-31.584c.893-20.857 28.306-34.563 44.098-34.861 15.792-.298 38.735 7.449 40.523 41.416 1.787 33.968-14.6 36.351-32.478 38.437-17.878 2.086-33.67-4.47-33.67-4.47-14.295 10.556-37.571 10.009-34.563 9.238z"/>
    <path fill="none" stroke-width="2.872" d="M218.674 28.765c7.443-.137 9.882 3.158 10.138 7.551.257 4.394-2.31 7.552-7.443 7.552-5.133 0-8.085-2.334-8.47-6.316-.385-3.982 1.54-8.238 5.775-8.787z"/>
    <path fill="none" stroke-linecap="round" stroke-linejoin="round" stroke-width="2.91" d="m239.284 17.217 2.152 26.093s-2.296-12.964 7.666-12.643c8.34.27 7.264 12.643 7.264 12.643"/>
    <path fill="none" stroke-width="2.742" d="M252.584 53.985c-7.167-.13-9.514 2.989-9.762 7.147-.247 4.159 2.224 7.148 7.167 7.148 4.942 0 7.784-2.21 8.155-5.978.37-3.769-1.483-7.797-5.56-8.317z"/>
    <path fill="none" stroke-linecap="round" stroke-linejoin="round" stroke-width="2.91" d="m215.61 55.55.808 14.258s-1.883-13.182 6.725-13.316c8.608-.135 8.608 11.97 8.608 11.97"/>
  </g>
</svg>